<svg id="Layer_1" data-name="Layer 1" xmlns="http://www.w3.org/2000/svg" width="256" height="237.4" viewBox="0 0 256 237.4">
  <defs>
    <style>
      .cls-1 {
        fill: #e2761b;
        stroke: #e2761b;
      }

      .cls-1, .cls-10, .cls-2, .cls-3, .cls-4, .cls-5, .cls-6, .cls-7, .cls-8, .cls-9 {
        stroke-linecap: round;
        stroke-linejoin: round;
      }

      .cls-2 {
        fill: #e4761b;
        stroke: #e4761b;
      }

      .cls-3 {
        fill: #d7c1b3;
        stroke: #d7c1b3;
      }

      .cls-4 {
        fill: #233447;
        stroke: #233447;
      }

      .cls-5 {
        fill: #cd6116;
        stroke: #cd6116;
      }

      .cls-6 {
        fill: #e4751f;
        stroke: #e4751f;
      }

      .cls-7 {
        fill: #f6851b;
        stroke: #f6851b;
      }

      .cls-8 {
        fill: #c0ad9e;
        stroke: #c0ad9e;
      }

      .cls-9 {
        fill: #161616;
        stroke: #161616;
      }

      .cls-10 {
        fill: #763d16;
        stroke: #763d16;
      }
    </style>
  </defs>
  <path class="cls-1" d="M274.1,35.5l-99.5,73.9L193,65.8Z" transform="translate(-31.3 -35)"/>
  <path class="cls-2" d="M44.4,35.5l98.7,74.6L125.6,65.8ZM238.3,206.8l-26.5,40.6L268.5,263l16.3-55.3Zm-204.4.9L50.1,263l56.7-15.6L80.3,206.8Z" transform="translate(-31.3 -35)"/>
  <path class="cls-2" d="M103.6,138.2,87.8,162.1l56.3,2.5-2-60.5Zm111.3,0-39-34.8-1.3,61.2,56.2-2.5ZM106.8,247.4l33.8-16.5-29.2-22.8Zm71.1-16.5,33.9,16.5-4.7-39.3Z" transform="translate(-31.3 -35)"/>
  <path class="cls-3" d="M211.8,247.4l-33.9-16.5,2.7,22.1-.3,9.3Zm-105,0,31.5,14.9-.2-9.3,2.5-22.1Z" transform="translate(-31.3 -35)"/>
  <path class="cls-4" d="M138.8,193.5l-28.2-8.3,19.9-9.1Zm40.9,0,8.3-17.4,20,9.1Z" transform="translate(-31.3 -35)"/>
  <path class="cls-5" d="M106.8,247.4l4.8-40.6-31.3.9ZM207,206.8l4.8,40.6,26.5-39.7Zm23.8-44.7-56.2,2.5,5.2,28.9,8.3-17.4,20,9.1ZM110.6,185.2l20-9.1,8.2,17.4,5.3-28.9-56.3-2.5Z" transform="translate(-31.3 -35)"/>
  <path class="cls-6" d="M87.8,162.1l23.6,46-.8-22.9Zm120.3,23.1-1,22.9,23.7-46Zm-64-20.6-5.3,28.9,6.6,34.1,1.5-44.9Zm30.5,0-2.7,18,1.2,45,6.7-34.1Z" transform="translate(-31.3 -35)"/>
  <path class="cls-7" d="M179.8,193.5l-6.7,34.1,4.8,3.3,29.2-22.8,1-22.9Zm-69.2-8.3.8,22.9,29.2,22.8,4.8-3.3-6.6-34.1Z" transform="translate(-31.3 -35)"/>
  <path class="cls-8" d="M180.3,262.3l.3-9.3-2.5-2.2H140.4l-2.3,2.2.2,9.3-31.5-14.9,11,9,22.3,15.5h38.3l22.4-15.5,11-9Z" transform="translate(-31.3 -35)"/>
  <path class="cls-9" d="M177.9,230.9l-4.8-3.3H145.4l-4.8,3.3L138.1,253l2.3-2.2h37.7l2.5,2.2Z" transform="translate(-31.3 -35)"/>
  <path class="cls-10" d="M278.3,114.2l8.5-40.8L274.1,35.5l-96.2,71.4,37,31.3,52.3,15.3L278.8,140l-5-3.6,8-7.3-6.2-4.8,8-6.1ZM31.8,73.4l8.5,40.8-5.4,4,8,6.1-6.1,4.8,8,7.3-5,3.6,11.5,13.5,52.3-15.3,37-31.3L44.4,35.5Z" transform="translate(-31.3 -35)"/>
  <path class="cls-7" d="M267.2,153.5l-52.3-15.3,15.9,23.9-23.7,46,31.2-.4h46.5ZM103.6,138.2,51.3,153.5,33.9,207.7H80.3l31.1.4-23.6-46Zm71,26.4,3.3-57.7,15.2-41.1H125.6l15,41.1,3.5,57.7,1.2,18.2.1,44.8h27.7l.2-44.8Z" transform="translate(-31.3 -35)"/>
</svg>
